# xmcd
#
# Track frame offsets:
#	150
#	13196
#	23234
#	34575
#	43205
#	61426
#	71808
#	85443
#	98039
#	108513
#	118522
#	128341
#	140396
#	149596
#	164531
#	177287
#	186446
#	199924
#	209915
#	220263
#	228054
#	241500
#	254334
#	264039
#	284228
#	298136
#
# Disc length: 4314 seconds
#
# Revision: 2
# Processed by: cddbd v1.5.2PL0 Copyright (c) Steve Scherf et al.
# Submitted via: EasyCDDAExtractor 16.1.0.1
#
DISCID=9410d81a
DTITLE=Peanut Butter Conspiracy - Spreading From The Ashes
DYEAR=2005
DGENRE=
TTITLE0=Peanut Butter Conspiracy - Time Is After You
TTITLE1=Peanut Butter Conspiracy - Love's Last Ground
TTITLE2=The Ashes - Is There Anything I Can Do
TTITLE3=Peanut Butter Conspiracy - Eventually
TTITLE4=The Ashes - Dark On You Now
TTITLE5=The Ashes - Winds Up High
TTITLE6=Peanut Butter Conspiracy - Free
TTITLE7=Peanut Butter Conspiracy - Big Bummer
TTITLE8=Peanut Butter Conspiracy - Light Bulb Blues
TTITLE9=The Ashes - Let's Take Our Love
TTITLE10=Peanut Butter Conspiracy - Enchanted World
TTITLE11=Peanut Butter Conspiracy - I'm Falling
TTITLE12=Peanut Butter Conspiracy - Flight Of The Psychedelic Bumble Bee
TTITLE13=Peanut Butter Conspiracy - Foolhearted Woman
TTITLE14=Peanut Butter Conspiracy - Shirley, Can You Come Out and Play
TTITLE15=Peanut Butter Conspiracy - 1-9-6-7
TTITLE16=The Ashes - So Lonely
TTITLE17=Peanut Butter Conspiracy - Floating Dream
TTITLE18=Peanut Butter Conspiracy - Shuffle Tune
TTITLE19=Peanut Butter Conspiracy - Moment Of Happiness
TTITLE20=The Ashes - Hangman
TTITLE21=The Ashes - Roses Gone
TTITLE22=Peanut Butter Conspiracy - Make Someone Happy
TTITLE23=Peanut Butter Conspiracy - Naturally (Wintry Ways)
TTITLE24=Peanut Butter Conspiracy - Taste Of Something New
TTITLE25=Peanut Butter Conspiracy - You Should Know [Live]
EXTD=
EXTT0=
EXTT1=
EXTT2=
EXTT3=
EXTT4=
EXTT5=
EXTT6=
EXTT7=
EXTT8=
EXTT9=
EXTT10=
EXTT11=
EXTT12=
EXTT13=
EXTT14=
EXTT15=
EXTT16=
EXTT17=
EXTT18=
EXTT19=
EXTT20=
EXTT21=
EXTT22=
EXTT23=
EXTT24=
EXTT25=
PLAYORDER=
